# Blender 3.3.1
# www.blender.org
mtllib pole.mtl
o Circle
v 0.000000 0.000000 -1.000000
v -0.195090 0.000000 -0.980785
v -0.382683 0.000000 -0.923880
v -0.555570 0.000000 -0.831470
v -0.707107 0.000000 -0.707107
v -0.831470 0.000000 -0.555570
v -0.923880 0.000000 -0.382683
v -0.980785 0.000000 -0.195090
v -1.000000 0.000000 0.000000
v -0.980785 0.000000 0.195090
v -0.923880 0.000000 0.382683
v -0.831470 0.000000 0.555570
v -0.707107 0.000000 0.707107
v -0.555570 0.000000 0.831470
v -0.382683 0.000000 0.923880
v -0.195090 0.000000 0.980785
v 0.000000 0.000000 1.000000
v 0.195090 0.000000 0.980785
v 0.382683 0.000000 0.923880
v 0.555570 0.000000 0.831470
v 0.707107 0.000000 0.707107
v 0.831470 0.000000 0.555570
v 0.923880 0.000000 0.382683
v 0.980785 0.000000 0.195090
v 1.000000 0.000000 0.000000
v 0.980785 0.000000 -0.195090
v 0.923880 0.000000 -0.382683
v 0.831470 0.000000 -0.555570
v 0.707107 0.000000 -0.707107
v 0.555570 0.000000 -0.831470
v 0.382683 0.000000 -0.923880
v 0.195090 0.000000 -0.980785
v 0.000000 83.110077 -1.000000
v -0.195090 83.110077 -0.980785
v -0.382683 83.110077 -0.923880
v -0.555570 83.110077 -0.831470
v -0.707107 83.110077 -0.707107
v -0.831470 83.110077 -0.555570
v -0.923880 83.110077 -0.382683
v -0.980785 83.110077 -0.195090
v -1.000000 83.110077 0.000000
v -0.980785 83.110077 0.195090
v -0.923880 83.110077 0.382683
v -0.831470 83.110077 0.555570
v -0.707107 83.110077 0.707107
v -0.555570 83.110077 0.831470
v -0.382683 83.110077 0.923880
v -0.195090 83.110077 0.980785
v 0.000000 83.110077 1.000000
v 0.195090 83.110077 0.980785
v 0.382683 83.110077 0.923880
v 0.555570 83.110077 0.831470
v 0.707107 83.110077 0.707107
v 0.831470 83.110077 0.555570
v 0.923880 83.110077 0.382683
v 0.980785 83.110077 0.195090
v 1.000000 83.110077 0.000000
v 0.980785 83.110077 -0.195090
v 0.923880 83.110077 -0.382683
v 0.831470 83.110077 -0.555570
v 0.707107 83.110077 -0.707107
v 0.555570 83.110077 -0.831470
v 0.382683 83.110077 -0.923880
v 0.195090 83.110077 -0.980785
vn -0.0000 -1.0000 -0.0000
vn -0.0000 1.0000 -0.0000
vn 0.6344 -0.0000 0.7730
vn -0.9569 -0.0000 -0.2903
vn 0.7730 -0.0000 0.6344
vn -0.9952 -0.0000 -0.0980
vn 0.8819 -0.0000 0.4714
vn -0.9952 -0.0000 0.0980
vn 0.9569 -0.0000 0.2903
vn -0.9569 -0.0000 0.2903
vn 0.9952 -0.0000 0.0980
vn -0.8819 -0.0000 0.4714
vn 0.9952 -0.0000 -0.0980
vn -0.7730 -0.0000 0.6344
vn 0.9569 -0.0000 -0.2903
vn -0.6344 -0.0000 0.7730
vn 0.8819 -0.0000 -0.4714
vn -0.4714 -0.0000 0.8819
vn -0.0980 -0.0000 -0.9952
vn 0.7730 -0.0000 -0.6344
vn -0.2903 -0.0000 0.9569
vn -0.2903 -0.0000 -0.9569
vn 0.6344 -0.0000 -0.7730
vn -0.0980 -0.0000 0.9952
vn -0.4714 -0.0000 -0.8819
vn 0.4714 -0.0000 -0.8819
vn 0.0980 -0.0000 0.9952
vn -0.6344 -0.0000 -0.7730
vn 0.2903 -0.0000 -0.9569
vn 0.2903 -0.0000 0.9569
vn -0.7730 -0.0000 -0.6344
vn 0.0980 -0.0000 -0.9952
vn 0.4714 -0.0000 0.8819
vn -0.8819 -0.0000 -0.4714
vt 0.000000 0.000000
vt 0.000000 0.000000
vt 0.000000 0.000000
vt 0.000000 0.000000
vt 0.000000 0.000000
vt 0.000000 0.000000
vt 0.000000 0.000000
vt 0.000000 0.000000
vt 0.000000 0.000000
vt 0.000000 0.000000
vt 0.000000 0.000000
vt 0.000000 0.000000
vt 0.000000 0.000000
vt 0.000000 0.000000
vt 0.000000 0.000000
vt 0.000000 0.000000
vt 0.000000 0.000000
vt 0.000000 0.000000
vt 0.000000 0.000000
vt 0.000000 0.000000
vt 0.000000 0.000000
vt 0.000000 0.000000
vt 0.000000 0.000000
vt 0.000000 0.000000
vt 0.000000 0.000000
vt 0.000000 0.000000
vt 0.000000 0.000000
vt 0.000000 0.000000
vt 0.000000 0.000000
vt 0.000000 0.000000
vt 0.000000 0.000000
vt 0.000000 0.000000
vt 0.000000 0.000000
vt 0.000000 0.000000
vt 0.000000 0.000000
vt 0.000000 0.000000
vt 0.000000 0.000000
vt 0.000000 0.000000
vt 0.000000 0.000000
vt 0.000000 0.000000
vt 0.000000 0.000000
vt 0.000000 0.000000
vt 0.000000 0.000000
vt 0.000000 0.000000
vt 0.000000 0.000000
vt 0.000000 0.000000
vt 0.000000 0.000000
vt 0.000000 0.000000
vt 0.000000 0.000000
vt 0.000000 0.000000
vt 0.000000 0.000000
vt 0.000000 0.000000
vt 0.000000 0.000000
vt 0.000000 0.000000
vt 0.000000 0.000000
vt 0.000000 0.000000
vt 0.000000 0.000000
vt 0.000000 0.000000
vt 0.000000 0.000000
vt 0.000000 0.000000
vt 0.000000 0.000000
vt 0.000000 0.000000
vt 0.000000 0.000000
vt 0.000000 0.000000
s 0
f 2/2/1 1/1/1 32/32/1 31/31/1 30/30/1 29/29/1 28/28/1 27/27/1 26/26/1 25/25/1 24/24/1 23/23/1 22/22/1 21/21/1 20/20/1 19/19/1 18/18/1 17/17/1 16/16/1 15/15/1 14/14/1 13/13/1 12/12/1 11/11/1 10/10/1 9/9/1 8/8/1 7/7/1 6/6/1 5/5/1 4/4/1 3/3/1
f 34/34/2 35/35/2 36/36/2 37/37/2 38/38/2 39/39/2 40/40/2 41/41/2 42/42/2 43/43/2 44/44/2 45/45/2 46/46/2 47/47/2 48/48/2 49/49/2 50/50/2 51/51/2 52/52/2 53/53/2 54/54/2 55/55/2 56/56/2 57/57/2 58/58/2 59/59/2 60/60/2 61/61/2 62/62/2 63/63/2 64/64/2 33/33/2
f 20/20/3 21/21/3 53/53/3 52/52/3
f 7/7/4 8/8/4 40/40/4 39/39/4
f 21/21/5 22/22/5 54/54/5 53/53/5
f 8/8/6 9/9/6 41/41/6 40/40/6
f 22/22/7 23/23/7 55/55/7 54/54/7
f 9/9/8 10/10/8 42/42/8 41/41/8
f 23/23/9 24/24/9 56/56/9 55/55/9
f 10/10/10 11/11/10 43/43/10 42/42/10
f 24/24/11 25/25/11 57/57/11 56/56/11
f 11/11/12 12/12/12 44/44/12 43/43/12
f 25/25/13 26/26/13 58/58/13 57/57/13
f 12/12/14 13/13/14 45/45/14 44/44/14
f 26/26/15 27/27/15 59/59/15 58/58/15
f 13/13/16 14/14/16 46/46/16 45/45/16
f 27/27/17 28/28/17 60/60/17 59/59/17
f 14/14/18 15/15/18 47/47/18 46/46/18
f 1/1/19 2/2/19 34/34/19 33/33/19
f 28/28/20 29/29/20 61/61/20 60/60/20
f 15/15/21 16/16/21 48/48/21 47/47/21
f 2/2/22 3/3/22 35/35/22 34/34/22
f 29/29/23 30/30/23 62/62/23 61/61/23
f 16/16/24 17/17/24 49/49/24 48/48/24
f 3/3/25 4/4/25 36/36/25 35/35/25
f 30/30/26 31/31/26 63/63/26 62/62/26
f 17/17/27 18/18/27 50/50/27 49/49/27
f 4/4/28 5/5/28 37/37/28 36/36/28
f 31/31/29 32/32/29 64/64/29 63/63/29
f 18/18/30 19/19/30 51/51/30 50/50/30
f 5/5/31 6/6/31 38/38/31 37/37/31
f 32/32/32 1/1/32 33/33/32 64/64/32
f 19/19/33 20/20/33 52/52/33 51/51/33
f 6/6/34 7/7/34 39/39/34 38/38/34
