# Blender 3.3.1
# www.blender.org
o body
v 1.772697 2.092284 2.375040
v -1.782243 2.092284 2.375040
v 0.002983 3.199839 2.375040
v 1.772697 2.092284 -2.376149
v -1.782244 2.092284 -2.376149
v 1.621855 0.000000 2.224198
v -1.631402 -0.000000 2.224198
v 1.621855 -0.000000 -2.225307
v -1.631402 -0.000000 -2.225307
v 0.002983 3.199839 -2.370600
v 1.772697 -0.000000 -2.376149
v -1.782244 -0.000000 -2.376149
v 1.772697 0.000000 2.375040
v -1.782244 -0.000000 2.375040
v -1.782244 2.092284 -2.376149
v -1.782244 2.092284 2.375040
v 1.621855 2.092284 -2.225307
v -1.631402 2.092284 -2.225307
v 1.621855 2.092284 2.224198
v -1.631402 2.092284 2.224198
v 1.772697 0.000000 0.243662
v 1.772697 0.886859 0.243662
v 1.772697 0.886859 -0.229115
v 1.772697 0.000000 -0.229115
v 1.621855 0.000000 0.243662
v 1.621855 0.886859 0.243662
v 1.621855 0.886859 -0.229115
v 1.621855 0.000000 -0.229115
v -1.782244 1.162838 -1.137157
v -1.782244 1.166682 -1.560141
v -1.782244 1.873333 -1.560141
v -1.782244 1.869489 -1.137157
v -1.631402 1.162838 -1.137157
v -1.631402 1.166682 -1.560141
v -1.631402 1.873333 -1.560141
v -1.631402 1.869489 -1.137157
v -1.782244 1.162838 0.224078
v -1.782244 1.166682 -0.198906
v -1.782244 1.869489 0.224078
v -1.782244 1.873333 -0.198906
v -1.631402 1.162838 0.224078
v -1.631402 1.166682 -0.198906
v -1.631402 1.869489 0.224078
v -1.631402 1.873333 -0.198906
v -1.782244 1.162838 1.559003
v -1.782244 1.166682 1.136019
v -1.782244 1.869489 1.559003
v -1.782244 1.873333 1.136019
v -1.631402 1.162838 1.559003
v -1.631402 1.166682 1.136019
v -1.631402 1.869489 1.559003
v -1.631402 1.873333 1.136019
v -1.782244 0.364137 1.136019
v -1.782244 0.883015 1.559003
v -1.782244 0.360293 1.559003
v -1.782244 0.886859 1.136019
v -1.631402 0.364137 1.136019
v -1.631402 0.883015 1.559003
v -1.631402 0.360293 1.559003
v -1.631402 0.886859 1.136019
v -1.782244 0.883015 -1.137157
v -1.782244 0.886859 -1.560141
v -1.782244 0.360293 -1.137157
v -1.782244 0.364137 -1.560141
v -1.631402 0.883015 -1.137157
v -1.631402 0.886859 -1.560141
v -1.631402 0.360293 -1.137157
v -1.631402 0.364137 -1.560141
v 1.621855 0.360293 -1.137157
v 1.621855 1.865645 1.559003
v 1.621855 1.162838 1.136019
v 1.621855 1.865644 0.224078
v 1.621855 1.869489 1.136019
v 1.621855 1.162838 -0.198906
v 1.621855 1.869489 -0.198906
v 1.621855 1.158993 0.224078
v 1.621855 0.883014 -1.137157
v 1.621855 1.162838 -1.137157
v 1.621855 1.869489 -1.137157
v 1.621855 1.166682 -1.560141
v 1.621855 1.873333 -1.560141
v 1.621855 0.364137 -1.560141
v 1.621855 0.886859 -1.560141
v 1.621855 0.360293 1.559003
v 1.621855 0.883015 1.559003
v 1.621855 1.158994 1.559003
v 1.621855 0.364137 1.136019
v 1.621855 0.886859 1.136019
v 1.621855 1.166682 1.136019
v 1.772697 0.364137 1.136019
v 1.772697 0.360293 -1.137157
v 1.772697 0.883015 1.559003
v 1.772697 0.360293 1.559003
v 1.772697 1.158994 1.559003
v 1.772697 0.886859 1.136019
v 1.772697 1.166682 1.136019
v 1.772697 1.162838 1.136019
v 1.772697 0.883014 -1.137157
v 1.772697 1.162838 -1.137157
v 1.772697 0.364137 -1.560141
v 1.772697 1.166682 -1.560141
v 1.772697 0.886859 -1.560141
v 1.772697 1.865645 1.559003
v 1.772697 1.158993 0.224078
v 1.772697 1.865645 0.224078
v 1.772697 1.869489 1.136019
v 1.772697 1.162838 -0.198906
v 1.772697 1.869489 -0.198906
v 1.772697 1.869489 -1.137157
v 1.772697 1.873333 -1.560141
v 0.832729 1.473656 -2.376149
v 1.168490 1.473656 -2.376149
v 0.832730 1.869205 -2.376149
v 1.168490 1.869206 -2.376149
v 0.830153 1.470312 2.224198
v 1.165913 1.470312 2.224198
v 0.830153 1.865861 2.224198
v 1.165913 1.865861 2.224198
v 0.832645 1.473546 -2.225307
v 1.168405 1.473547 -2.225307
v 0.832645 1.869096 -2.225307
v 1.168406 1.869096 -2.225307
v 1.165829 1.470202 2.375040
v 0.830069 1.865751 2.375040
v 1.165829 1.865752 2.375040
v 0.830068 1.470202 2.375040
v -1.782244 0.362595 0.224078
v -1.782244 0.364137 -0.198906
v -1.782244 0.360293 0.224078
v -1.631402 0.362595 0.224078
v -1.631402 0.364137 -0.198906
v -1.631402 0.883014 0.224078
v -1.631402 0.886859 -0.198906
v -1.782244 0.883015 0.224078
v -1.782244 0.886859 -0.198906
v -1.631402 0.360293 0.224078
vn 1.0000 -0.0000 -0.0000
vn -0.0000 -0.0000 1.0000
vn 0.5272 -0.8498 -0.0000
vn 1.0000 -0.0000 0.0006
vn -0.0000 1.0000 -0.0000
vn -1.0000 -0.0000 -0.0000
vn -0.0000 -0.0000 -1.0000
vn -0.0000 -1.0000 -0.0000
vn -0.0000 1.0000 0.0091
vn -0.0000 -1.0000 -0.0091
vn 0.5305 0.8477 -0.0000
vn -1.0000 -0.0000 -0.0006
vn -0.0000 1.0000 0.0007
vn -0.0000 -1.0000 -0.0007
vn -0.0000 -0.0041 1.0000
vn -0.1094 -0.8370 0.5362
vt 0.000000 0.000000
vt 0.000000 0.000000
vt 0.000000 0.000000
vt 0.000000 0.000000
vt 0.000000 0.000000
vt 0.000000 0.000000
vt 0.000000 0.000000
vt 0.000000 0.000000
vt 0.000000 0.000000
vt 0.000000 0.000000
vt 0.000000 0.000000
vt 0.000000 0.000000
vt 0.000000 0.000000
vt 0.000000 0.000000
vt 0.000000 0.000000
vt 0.000000 0.000000
vt 0.000000 0.000000
vt 0.000000 0.000000
vt 0.000000 0.000000
vt 0.000000 0.000000
vt 0.000000 0.000000
vt 0.000000 0.000000
vt 0.000000 0.000000
vt 0.000000 0.000000
vt 0.000000 0.000000
vt 0.000000 0.000000
vt 0.000000 0.000000
vt 0.000000 0.000000
vt 0.000000 0.000000
vt 0.000000 0.000000
vt 0.000000 0.000000
vt 0.000000 0.000000
vt 0.000000 0.000000
vt 0.000000 0.000000
vt 0.000000 0.000000
vt 0.000000 0.000000
vt 0.000000 0.000000
vt 0.000000 0.000000
vt 0.000000 0.000000
vt 0.000000 0.000000
vt 0.000000 0.000000
vt 0.000000 0.000000
vt 0.000000 0.000000
vt 0.000000 0.000000
vt 0.000000 0.000000
vt 0.000000 0.000000
vt 0.000000 0.000000
vt 0.000000 0.000000
vt 0.000000 0.000000
vt 0.000000 0.000000
vt 0.000000 0.000000
vt 0.000000 0.000000
vt 0.000000 0.000000
vt 0.000000 0.000000
vt 0.000000 0.000000
vt 0.000000 0.000000
vt 0.000000 0.000000
vt 0.000000 0.000000
vt 0.000000 0.000000
vt 0.000000 0.000000
vt 0.000000 0.000000
vt 0.000000 0.000000
vt 0.000000 0.000000
vt 0.000000 0.000000
vt 0.000000 0.000000
vt 0.000000 0.000000
vt 0.000000 0.000000
vt 0.000000 0.000000
vt 0.000000 0.000000
vt 0.000000 0.000000
vt 0.000000 0.000000
vt 0.000000 0.000000
vt 0.000000 0.000000
vt 0.000000 0.000000
vt 0.000000 0.000000
vt 0.000000 0.000000
vt 0.000000 0.000000
vt 0.000000 0.000000
vt 0.000000 0.000000
vt 0.000000 0.000000
vt 0.000000 0.000000
vt 0.000000 0.000000
vt 0.000000 0.000000
vt 0.000000 0.000000
vt 0.000000 0.000000
vt 0.000000 0.000000
vt 0.000000 0.000000
vt 0.000000 0.000000
vt 0.000000 0.000000
vt 0.000000 0.000000
vt 0.000000 0.000000
vt 0.000000 0.000000
vt 0.000000 0.000000
vt 0.000000 0.000000
vt 0.000000 0.000000
vt 0.000000 0.000000
vt 0.000000 0.000000
vt 0.000000 0.000000
vt 0.000000 0.000000
vt 0.000000 0.000000
vt 0.000000 0.000000
vt 0.000000 0.000000
vt 0.000000 0.000000
vt 0.000000 0.000000
vt 0.000000 0.000000
vt 0.000000 0.000000
vt 0.000000 0.000000
vt 0.000000 0.000000
vt 0.000000 0.000000
vt 0.000000 0.000000
vt 0.606598 0.250000
vt 0.000000 0.000000
vt 0.606598 0.250000
vt 0.000000 0.000000
vt 0.606598 0.500000
vt 0.000000 0.000000
vt 0.606598 0.500000
vt 0.000000 0.000000
vt 0.389096 0.250000
vt 0.389096 0.250000
vt 0.389096 0.500000
vt 0.389096 0.500000
vt 0.000000 0.000000
vt 0.599467 0.250000
vt 0.599467 0.250000
vt 0.000000 0.000000
vt 0.599467 0.500000
vt 0.000000 0.000000
vt 0.599467 0.500000
vt 0.381965 0.250000
vt 0.381965 0.500000
vt 0.381965 0.500000
vt 0.381965 0.250000
vt 0.000000 0.000000
vt 0.000000 0.000000
vt 0.000000 0.000000
vt 0.000000 0.000000
vt 0.000000 0.000000
vt 0.000000 0.000000
vt 0.000000 0.000000
vt 0.000000 0.000000
vt 0.000000 0.000000
vt 0.000000 0.000000
s 0
f 48/48/1 39/39/1 40/40/1 32/32/1 31/31/1 5/5/1 2/2/1 47/47/1
f 26/26/2 25/25/2 21/21/2 22/22/2
f 3/3/3 2/2/3 5/5/3 10/10/3
f 119/123/4 111/111/4 113/115/4 121/128/4
f 19/19/2 20/20/2 117/121/2 118/122/2
f 125/132/2 1/1/2 3/3/2 2/2/2 16/16/2 124/131/2
f 26/26/5 22/22/5 23/23/5 27/27/5
f 63/63/6 64/64/6 12/12/6 14/14/6 55/55/6 53/53/6 127/134/6 129/136/6 128/135/6
f 66/66/1 68/68/1 9/9/1 18/18/1 35/35/1 34/34/1 33/33/1 36/36/1 44/44/1 42/42/1 41/41/1 43/43/1 52/52/1 50/50/1 49/49/1 51/51/1 20/20/1 7/7/1 59/59/1 58/58/1 60/60/1 57/57/1 130/137/1 132/139/1 133/140/1 131/138/1 67/67/1 65/65/1
f 52/52/1 43/43/1 44/44/1 36/36/1 35/35/1 18/18/1 20/20/1 51/51/1
f 122/129/7 121/127/7 18/18/7 17/17/7
f 27/27/7 23/23/7 24/24/7 28/28/7
f 21/21/8 13/13/8 6/6/8 25/25/8
f 13/13/8 14/14/8 7/7/8 6/6/8
f 28/28/8 8/8/8 11/11/8 24/24/8
f 12/12/8 11/11/8 8/8/8 9/9/8
f 14/14/8 12/12/8 9/9/8 7/7/8
f 100/100/1 91/91/1 24/24/1 11/11/1
f 13/13/1 21/21/1 90/90/1 93/93/1
f 99/99/7 78/78/7 79/79/7 109/109/7
f 73/73/2 71/71/2 89/89/2 96/96/2 106/106/2
f 89/89/2 71/71/2 97/97/2 96/96/2
f 83/83/2 82/82/2 100/100/2 102/102/2
f 87/87/9 84/84/9 93/93/9 90/90/9
f 92/92/10 85/85/10 88/88/10 95/95/10
f 103/103/10 70/70/10 73/73/10 106/106/10
f 71/71/9 86/86/9 94/94/9 97/97/9
f 80/80/9 78/78/9 99/99/9 101/101/9
f 82/82/9 69/69/9 91/91/9 100/100/9
f 98/98/10 77/77/10 83/83/10 102/102/10
f 93/93/7 84/84/7 85/85/7 92/92/7
f 94/94/7 86/86/7 70/70/7 103/103/7
f 81/81/2 80/80/2 101/101/2 110/110/2
f 88/88/2 87/87/2 90/90/2 95/95/2
f 91/91/7 69/69/7 77/77/7 98/98/7
f 110/110/1 4/4/1 1/1/1 103/103/1 106/106/1 105/105/1 108/108/1 109/109/1
f 4/4/11 10/10/11 3/3/11 1/1/11
f 109/109/10 79/79/10 81/81/10 110/110/10
f 62/62/1 64/64/1 12/12/1 15/15/1 5/5/1 31/31/1 30/30/1 29/29/1 32/32/1 40/40/1 38/38/1 37/37/1 39/39/1 48/48/1 46/46/1 45/45/1 47/47/1 2/2/1 14/14/1 55/55/1 54/54/1 56/56/1 53/53/1 127/134/1 134/141/1 135/142/1 128/135/1 63/63/1 61/61/1
f 130/137/1 57/57/1 59/59/1 7/7/1 9/9/1 68/68/1 67/67/1 131/138/1 136/143/1
f 69/69/6 82/82/6 8/8/6 28/28/6
f 81/81/1 17/17/1 19/19/1 70/70/1 73/73/1 72/72/1 75/75/1 79/79/1
f 87/87/6 25/25/6 6/6/6 84/84/6
f 86/86/1 70/70/1 19/19/1 6/6/1 84/84/1 85/85/1 88/88/1 87/87/1 25/25/1 26/26/1 27/27/1 28/28/1 69/69/1 77/77/1 83/83/1 82/82/1 8/8/1 17/17/1 81/81/1 80/80/1 78/78/1 79/79/1 75/75/1 74/74/1 76/76/1 72/72/1 73/73/1 71/71/1
f 94/94/1 103/103/1 1/1/1 13/13/1 93/93/1 92/92/1 95/95/1 90/90/1 21/21/1 22/22/1 23/23/1 24/24/1 91/91/1 98/98/1 102/102/1 100/100/1 11/11/1 4/4/1 110/110/1 101/101/1 99/99/1 109/109/1 108/108/1 107/107/1 104/104/1 105/105/1 106/106/1 96/96/1 97/97/1
f 73/73/2 71/71/2 96/96/2 106/106/2
f 75/75/7 108/108/7 107/107/7 74/74/7
f 104/104/9 107/107/9 74/74/9 76/76/9
f 75/75/9 72/72/9 105/105/9 108/108/9
f 104/104/2 105/105/2 72/72/2 76/76/2
f 64/64/9 63/63/9 67/67/9 68/68/9
f 64/64/7 62/62/7 66/66/7 68/68/7
f 63/63/2 67/67/2 65/65/2 61/61/2
f 62/62/9 61/61/9 65/65/9 66/66/9
f 30/30/10 34/34/10 33/33/10 29/29/10
f 35/35/2 31/31/2 30/30/2 34/34/2
f 32/32/9 36/36/9 35/35/9 31/31/9
f 32/32/2 29/29/2 33/33/2 36/36/2
f 40/40/7 44/44/7 42/42/7 38/38/7
f 40/40/9 39/39/9 43/43/9 44/44/9
f 38/38/10 42/42/10 41/41/10 37/37/10
f 39/39/2 37/37/2 41/41/2 43/43/2
f 48/48/7 52/52/7 50/50/7 46/46/7
f 46/46/10 50/50/10 49/49/10 45/45/10
f 47/47/2 45/45/2 49/49/2 51/51/2
f 48/48/9 47/47/9 51/51/9 52/52/9
f 56/56/7 60/60/7 57/57/7 53/53/7
f 56/56/9 54/54/9 58/58/9 60/60/9
f 55/55/2 59/59/2 58/58/2 54/54/2
f 55/55/9 59/59/9 57/57/9 53/53/9
f 19/19/5 17/17/5 18/18/5 20/20/5
f 126/133/2 124/131/2 16/16/2 14/14/2 13/13/2 1/1/2 125/132/2 123/130/2
f 116/120/7 118/122/7 19/19/7 6/6/7 7/7/7 20/20/7 117/121/7 115/119/7
f 125/132/12 118/122/12 116/120/12 123/130/12
f 114/117/12 112/113/12 120/126/12 122/129/12
f 123/130/13 116/120/13 115/119/13 126/133/13
f 111/111/13 119/124/13 120/125/13 112/113/13
f 126/133/4 115/119/4 117/121/4 124/131/4
f 117/121/14 118/122/14 125/132/14 124/131/14
f 121/127/14 113/115/14 114/117/14 122/129/14
f 119/124/2 121/128/2 18/18/2 9/9/2 8/8/2 17/17/2 122/129/2 120/126/2
f 10/10/15 5/5/15 15/15/15 113/115/15 114/117/15 4/4/15
f 11/11/7 12/12/7 5/5/7
f 112/114/7 114/118/7 4/4/7 11/11/7 15/15/7 113/116/7 111/112/7
f 5/5/16 15/15/16 11/11/16
f 131/138/9 128/135/9 129/136/9 136/143/9
f 135/142/10 133/140/10 132/139/10 134/141/10
f 129/136/7 127/134/7 134/141/7 132/139/7 130/137/7 136/143/7
f 131/138/2 133/140/2 135/142/2 128/135/2
