# Blender 3.3.1
# www.blender.org
o chimney
v 0.150000 2.891655 1.187549
v 0.150000 2.891655 1.470688
v -0.150000 2.891655 1.187549
v -0.150000 2.891655 1.470688
v 0.150000 3.708346 1.187549
v 0.150000 3.708346 1.470688
v -0.150000 3.708346 1.187549
v -0.150000 3.708346 1.470688
v 0.150000 2.891655 -1.484074
v 0.150000 2.891655 -1.200935
v -0.150000 2.891655 -1.484074
v -0.150000 2.891655 -1.200935
v 0.150000 3.708346 -1.484074
v 0.150000 3.708346 -1.200935
v -0.150000 3.708346 -1.484074
v -0.150000 3.708346 -1.200935
vn -0.0000 1.0000 -0.0000
vn -0.0000 -1.0000 -0.0000
vn -1.0000 -0.0000 -0.0000
vn 1.0000 -0.0000 -0.0000
vn -0.0000 -0.0000 -1.0000
vn -0.0000 -0.0000 1.0000
vt -0.148067 -1.853430
vt 0.519297 -1.853430
vt 0.519297 -1.853430
vt 1.186662 -1.853430
vt -0.148067 -1.853430
vt 0.519297 -1.853430
vt 0.519297 -1.853430
vt 1.186662 -1.853430
vt -0.148067 -1.853430
vt 0.519297 -1.853430
vt 0.519297 -1.853430
vt 1.186662 -1.853430
vt -0.148067 -1.853430
vt 0.519297 -1.853430
vt 0.519297 -1.853430
vt 1.186662 -1.853430
s 0
f 3/3/1 4/4/1 2/2/1 1/1/1
f 7/7/2 5/5/2 6/6/2 8/8/2
f 1/1/3 2/2/3 6/6/3 5/5/3
f 4/4/4 3/3/4 7/7/4 8/8/4
f 2/2/5 4/4/5 8/8/5 6/6/5
f 3/3/6 1/1/6 5/5/6 7/7/6
f 11/11/1 12/12/1 10/10/1 9/9/1
f 15/15/2 13/13/2 14/14/2 16/16/2
f 9/9/3 10/10/3 14/14/3 13/13/3
f 12/12/4 11/11/4 15/15/4 16/16/4
f 10/10/5 12/12/5 16/16/5 14/14/5
f 11/11/6 9/9/6 13/13/6 15/15/6
