# Blender 3.3.1
# www.blender.org
o seat
v -102.708672 -41.344395 -39.495888
v -102.708672 -44.530937 -23.112568
v -102.708672 -41.344398 -23.112566
v -102.708672 -44.530933 -39.495892
v -102.309563 -44.530937 -22.713467
v -102.309563 -44.930038 -23.112568
v -102.309563 -41.344398 -22.713467
v -102.309563 -40.945297 -23.112566
v -102.309563 -40.945293 -39.495888
v -102.309563 -41.344395 -39.894989
v -102.309563 -44.530933 -39.894989
v -102.309563 -44.930035 -39.495892
v 102.309563 -44.530937 -22.713467
v 102.309563 -44.930038 -23.112568
v 102.309563 -41.344398 -22.713467
v 102.309563 -40.945297 -23.112566
v 102.309578 -40.945293 -39.495888
v 102.309578 -41.344395 -39.894989
v 102.309578 -44.530933 -39.894989
v 102.309578 -44.930035 -39.495892
v 102.708672 -44.530937 -23.112568
v 102.708672 -41.344398 -23.112566
v 102.708672 -41.344395 -39.495888
v 102.708672 -44.530933 -39.495892
v -102.708672 -41.344402 -11.984413
v -102.708672 -44.530949 4.398909
v -102.708672 -41.344410 4.398911
v -102.708672 -44.530941 -11.984410
v -102.309563 -44.530949 4.798006
v -102.309563 -44.930050 4.398909
v -102.309563 -41.344410 4.798008
v -102.309563 -40.945312 4.398911
v -102.309563 -40.945305 -11.984413
v -102.309563 -41.344402 -12.383512
v -102.309563 -44.530941 -12.383513
v -102.309563 -44.930042 -11.984410
v 102.309563 -44.530949 4.798006
v 102.309563 -44.930050 4.398909
v 102.309563 -41.344410 4.798008
v 102.309563 -40.945312 4.398911
v 102.309578 -40.945305 -11.984413
v 102.309578 -41.344402 -12.383512
v 102.309578 -44.530941 -12.383513
v 102.309578 -44.930042 -11.984414
v 102.708672 -44.530949 4.398909
v 102.708672 -41.344410 4.398911
v 102.708672 -41.344402 -11.984413
v 102.708672 -44.530941 -11.984414
v -102.708672 -65.842377 27.461166
v -102.708672 -82.441490 29.203884
v -102.708672 -81.509842 32.251186
v -102.708672 -66.774033 24.413879
v -102.309563 -82.823143 29.320568
v -102.309563 -82.558174 28.822224
v -102.309563 -81.891495 32.367870
v -102.309563 -81.393150 32.632847
v -102.309563 -65.725693 27.842834
v -102.309563 -65.460716 27.344482
v -102.309563 -66.392365 24.297188
v -102.309563 -66.890717 24.032211
v 102.309563 -82.823151 29.320560
v 102.309563 -82.558182 28.822216
v 102.309563 -81.891502 32.367863
v 102.309563 -81.393166 32.632847
v 102.309563 -65.725700 27.842827
v 102.309563 -65.460724 27.344482
v 102.309563 -66.392372 24.297180
v 102.309563 -66.890724 24.032204
v 102.708656 -82.441490 29.203876
v 102.708656 -81.509850 32.251186
v 102.708656 -65.842384 27.461166
v 102.708656 -66.774033 24.413864
vn -1.0000 -0.0000 -0.0000
vn -0.5773 -0.5774 0.5774
vn -0.7071 -0.0000 0.7071
vn -0.5773 0.5773 0.5774
vn -0.7071 0.7071 -0.0000
vn -0.5773 0.5773 -0.5774
vn -0.7071 -0.0000 -0.7071
vn -0.5773 -0.5774 -0.5774
vn -0.7071 -0.7071 -0.0000
vn -0.0000 -0.7071 0.7071
vn -0.0000 -0.0000 1.0000
vn -0.0000 0.7071 0.7071
vn -0.0000 1.0000 -0.0000
vn -0.0000 0.7071 -0.7071
vn -0.0000 -0.0000 -1.0000
vn -0.0000 -0.7071 -0.7071
vn -0.0000 -1.0000 -0.0000
vn 0.5773 -0.5774 0.5774
vn 0.7071 -0.0000 0.7071
vn 0.5773 0.5773 0.5774
vn 0.7071 0.7071 -0.0000
vn 0.5774 0.5773 -0.5773
vn 0.7071 -0.0000 -0.7071
vn 0.5774 -0.5773 -0.5774
vn 0.7071 -0.7071 -0.0000
vn 1.0000 -0.0000 -0.0000
vn -0.5773 0.5774 0.5773
vn -0.5773 0.5774 -0.5773
vn 0.5773 0.5774 0.5773
vn 0.5774 0.5773 -0.5774
vn -0.5773 -0.7209 -0.3833
vn -0.7071 -0.6762 0.2067
vn -0.5773 -0.3833 0.7209
vn -0.7071 0.2067 0.6762
vn -0.5773 0.7209 0.3833
vn -0.7071 0.6762 -0.2067
vn -0.5773 0.3833 -0.7209
vn -0.7071 -0.2067 -0.6762
vn -0.0000 -0.8830 -0.4695
vn -0.0000 -0.9563 0.2924
vn -0.0000 -0.4695 0.8829
vn -0.0000 0.2924 0.9563
vn -0.0000 0.8829 0.4695
vn -0.0000 0.9563 -0.2924
vn -0.0000 0.4695 -0.8830
vn -0.0000 -0.2924 -0.9563
vn 0.5774 -0.7209 -0.3833
vn 0.7071 -0.6762 0.2067
vn 0.5773 -0.3833 0.7209
vn 0.7071 0.2067 0.6762
vn 0.5773 0.7209 0.3833
vn 0.7071 0.6762 -0.2067
vn 0.5774 0.3833 -0.7209
vn 0.7071 -0.2067 -0.6762
vt 0.989706 -0.073614
vt 0.989706 0.142959
vt 0.989706 0.124950
vt 0.989706 -0.055605
vt 0.987803 0.147796
vt 0.987803 0.145215
vt 0.987803 0.129787
vt 0.987803 0.122694
vt 0.987803 -0.075870
vt 0.987803 -0.078452
vt 0.987803 -0.060443
vt 0.987803 -0.053350
vt 0.012197 0.147796
vt 0.012197 0.145215
vt 0.012197 0.129787
vt 0.012197 0.122695
vt 0.012197 -0.075870
vt 0.012197 -0.078451
vt 0.012197 -0.060442
vt 0.012197 -0.053350
vt 0.010294 0.142959
vt 0.010294 0.124950
vt 0.010294 -0.073614
vt 0.010294 -0.055605
vt 0.989706 0.259822
vt 0.989706 0.476396
vt 0.989706 0.458387
vt 0.989706 0.277831
vt 0.987803 0.481233
vt 0.987803 0.478651
vt 0.987803 0.463224
vt 0.987803 0.456131
vt 0.987803 0.257567
vt 0.987803 0.254985
vt 0.987803 0.272994
vt 0.987803 0.280087
vt 0.012197 0.481233
vt 0.012197 0.478651
vt 0.012197 0.463224
vt 0.012197 0.456131
vt 0.012197 0.257567
vt 0.012197 0.254985
vt 0.012197 0.272994
vt 0.012197 0.280087
vt 0.010294 0.476396
vt 0.010294 0.458387
vt 0.010294 0.259822
vt 0.010294 0.277831
vt 0.989706 0.876352
vt 0.989706 0.991286
vt 0.989706 1.022953
vt 0.989706 0.844685
vt 0.987803 0.994857
vt 0.987803 0.987319
vt 0.987803 1.026524
vt 0.987803 1.026919
vt 0.987803 0.880319
vt 0.987803 0.872781
vt 0.987803 0.841113
vt 0.987803 0.840718
vt 0.012197 0.994857
vt 0.012197 0.987319
vt 0.012197 1.026525
vt 0.012197 1.026920
vt 0.012197 0.880319
vt 0.012197 0.872781
vt 0.012197 0.841114
vt 0.012197 0.840718
vt 0.010294 0.991286
vt 0.010294 1.022953
vt 0.010294 0.876352
vt 0.010294 0.844685
s 0
f 1/1/1 2/2/1 3/3/1
f 4/4/1 2/2/1 1/1/1
f 5/5/2 2/2/2 6/6/2
f 7/7/3 2/2/3 5/5/3
f 3/3/3 2/2/3 7/7/3
f 8/8/4 3/3/4 7/7/4
f 9/9/5 3/3/5 8/8/5
f 1/1/5 3/3/5 9/9/5
f 10/10/6 1/1/6 9/9/6
f 11/11/7 1/1/7 10/10/7
f 4/4/7 1/1/7 11/11/7
f 12/12/8 4/4/8 11/11/8
f 6/6/9 4/4/9 12/12/9
f 2/2/9 4/4/9 6/6/9
f 13/13/10 6/6/10 14/14/10
f 5/5/10 6/6/10 13/13/10
f 15/15/11 5/5/11 13/13/11
f 7/7/11 5/5/11 15/15/11
f 16/16/12 7/7/12 15/15/12
f 8/8/12 7/7/12 16/16/12
f 17/17/13 8/8/13 16/16/13
f 9/9/13 8/8/13 17/17/13
f 18/18/14 9/9/14 17/17/14
f 10/10/14 9/9/14 18/18/14
f 19/19/15 10/10/15 18/18/15
f 11/11/15 10/10/15 19/19/15
f 20/20/16 11/11/16 19/19/16
f 12/12/16 11/11/16 20/20/16
f 14/14/17 12/12/17 20/20/17
f 6/6/17 12/12/17 14/14/17
f 13/13/18 14/14/18 21/21/18
f 22/22/19 13/13/19 21/21/19
f 15/15/19 13/13/19 22/22/19
f 16/16/20 15/15/20 22/22/20
f 23/23/21 16/16/21 22/22/21
f 17/17/21 16/16/21 23/23/21
f 18/18/22 17/17/22 23/23/22
f 24/24/23 18/18/23 23/23/23
f 19/19/23 18/18/23 24/24/23
f 20/20/24 19/19/24 24/24/24
f 21/21/25 20/20/25 24/24/25
f 14/14/25 20/20/25 21/21/25
f 22/22/26 24/24/26 23/23/26
f 21/21/26 24/24/26 22/22/26
f 25/25/1 26/26/1 27/27/1
f 28/28/1 26/26/1 25/25/1
f 29/29/2 26/26/2 30/30/2
f 31/31/3 26/26/3 29/29/3
f 27/27/3 26/26/3 31/31/3
f 32/32/27 27/27/27 31/31/27
f 33/33/5 27/27/5 32/32/5
f 25/25/5 27/27/5 33/33/5
f 34/34/28 25/25/28 33/33/28
f 35/35/7 25/25/7 34/34/7
f 28/28/7 25/25/7 35/35/7
f 36/36/8 28/28/8 35/35/8
f 30/30/9 28/28/9 36/36/9
f 26/26/9 28/28/9 30/30/9
f 37/37/10 30/30/10 38/38/10
f 29/29/10 30/30/10 37/37/10
f 39/39/11 29/29/11 37/37/11
f 31/31/11 29/29/11 39/39/11
f 40/40/12 31/31/12 39/39/12
f 32/32/12 31/31/12 40/40/12
f 41/41/13 32/32/13 40/40/13
f 33/33/13 32/32/13 41/41/13
f 42/42/14 33/33/14 41/41/14
f 34/34/14 33/33/14 42/42/14
f 43/43/15 34/34/15 42/42/15
f 35/35/15 34/34/15 43/43/15
f 44/44/16 35/35/16 43/43/16
f 36/36/16 35/35/16 44/44/16
f 38/38/17 36/36/17 44/44/17
f 30/30/17 36/36/17 38/38/17
f 37/37/18 38/38/18 45/45/18
f 46/46/19 37/37/19 45/45/19
f 39/39/19 37/37/19 46/46/19
f 40/40/29 39/39/29 46/46/29
f 47/47/21 40/40/21 46/46/21
f 41/41/21 40/40/21 47/47/21
f 42/42/30 41/41/30 47/47/30
f 48/48/23 42/42/23 47/47/23
f 43/43/23 42/42/23 48/48/23
f 44/44/24 43/43/24 48/48/24
f 45/45/25 44/44/25 48/48/25
f 38/38/25 44/44/25 45/45/25
f 46/46/26 48/48/26 47/47/26
f 45/45/26 48/48/26 46/46/26
f 49/49/1 50/50/1 51/51/1
f 52/52/1 50/50/1 49/49/1
f 53/53/31 50/50/31 54/54/31
f 55/55/32 50/50/32 53/53/32
f 51/51/32 50/50/32 55/55/32
f 56/56/33 51/51/33 55/55/33
f 57/57/34 51/51/34 56/56/34
f 49/49/34 51/51/34 57/57/34
f 58/58/35 49/49/35 57/57/35
f 59/59/36 49/49/36 58/58/36
f 52/52/36 49/49/36 59/59/36
f 60/60/37 52/52/37 59/59/37
f 54/54/38 52/52/38 60/60/38
f 50/50/38 52/52/38 54/54/38
f 61/61/39 54/54/39 62/62/39
f 53/53/39 54/54/39 61/61/39
f 63/63/40 53/53/40 61/61/40
f 55/55/40 53/53/40 63/63/40
f 64/64/41 55/55/41 63/63/41
f 56/56/41 55/55/41 64/64/41
f 65/65/42 56/56/42 64/64/42
f 57/57/42 56/56/42 65/65/42
f 66/66/43 57/57/43 65/65/43
f 58/58/43 57/57/43 66/66/43
f 67/67/44 58/58/44 66/66/44
f 59/59/44 58/58/44 67/67/44
f 68/68/45 59/59/45 67/67/45
f 60/60/45 59/59/45 68/68/45
f 62/62/46 60/60/46 68/68/46
f 54/54/46 60/60/46 62/62/46
f 61/61/47 62/62/47 69/69/47
f 70/70/48 61/61/48 69/69/48
f 63/63/48 61/61/48 70/70/48
f 64/64/49 63/63/49 70/70/49
f 71/71/50 64/64/50 70/70/50
f 65/65/50 64/64/50 71/71/50
f 66/66/51 65/65/51 71/71/51
f 72/72/52 66/66/52 71/71/52
f 67/67/52 66/66/52 72/72/52
f 68/68/53 67/67/53 72/72/53
f 69/69/54 68/68/54 72/72/54
f 62/62/54 68/68/54 69/69/54
f 70/70/26 72/72/26 71/71/26
f 69/69/26 72/72/26 70/70/26
